<?xml version="1.0" encoding="iso-8859-1"?>
<!-- Generator: Adobe Illustrator 19.0.0, SVG Export Plug-In . SVG Version: 6.00 Build 0)  -->
<svg version="1.1" id="Capa_1" xmlns="http://www.w3.org/2000/svg" xmlns:xlink="http://www.w3.org/1999/xlink" x="0px" y="0px"
	 viewBox="0 0 511.999 511.999" style="enable-background:new 0 0 511.999 511.999;" xml:space="preserve">
<path id="SVGCleanerId_0" style="fill:#EB358A;" d="M160.547,8.532v112.162v175.37c-0.969-0.049-1.943-0.074-2.924-0.074
	c-19.048,0-35.92,9.285-46.359,23.569c-10.441-14.284-27.313-23.569-46.359-23.569c-31.701,0-57.398,25.698-57.398,57.398
	c0,68.653,103.759,106.169,103.759,106.169S214.45,422.241,215.01,353.943l0.013-226.205l235.003,30.383v182.413
	c-0.969-0.049-1.943-0.074-2.924-0.074c-19.048,0-35.92,9.285-46.359,23.569c-10.441-14.284-27.313-23.569-46.36-23.569
	c-31.701,0-57.398,25.698-57.398,57.398c0,68.653,103.759,106.169,103.759,106.169s103.712-37.5,103.758-106.124l0.001-232.739
	V132.71V53.001L160.547,8.532z"/>
<g>
	<path id="SVGCleanerId_0_1_" style="fill:#EB358A;" d="M160.547,8.532v112.162v175.37c-0.969-0.049-1.943-0.074-2.924-0.074
		c-19.048,0-35.92,9.285-46.359,23.569c-10.441-14.284-27.313-23.569-46.359-23.569c-31.701,0-57.398,25.698-57.398,57.398
		c0,68.653,103.759,106.169,103.759,106.169S214.45,422.241,215.01,353.943l0.013-226.205l235.003,30.383v182.413
		c-0.969-0.049-1.943-0.074-2.924-0.074c-19.048,0-35.92,9.285-46.359,23.569c-10.441-14.284-27.313-23.569-46.36-23.569
		c-31.701,0-57.398,25.698-57.398,57.398c0,68.653,103.759,106.169,103.759,106.169s103.712-37.5,103.758-106.124l0.001-232.739
		V132.71V53.001L160.547,8.532z"/>
</g>
<g>
	<path style="fill:#943EC7;" d="M447.1,340.458c-10.106,0-19.587,2.634-27.832,7.222c7.295,4.059,13.627,9.642,18.528,16.347
		c10.441-14.284,27.313-23.569,46.36-23.569c0.981,0,1.955,0.025,2.924,0.074V158.119l-235.003-30.383v4.791l197.948,25.592v182.413
		C449.055,340.483,448.08,340.458,447.1,340.458z"/>
	<path style="fill:#943EC7;" d="M148.319,319.558c10.441-14.284,27.313-23.569,46.359-23.569c0.981,0,1.955,0.025,2.924,0.074
		v-175.37V13.323l-37.056-4.791v112.162v175.37c-0.969-0.049-1.943-0.074-2.924-0.074c-10.106,0-19.587,2.634-27.832,7.222
		C137.086,307.269,143.417,312.852,148.319,319.558z"/>
	<path style="fill:#943EC7;" d="M334.038,397.856c0-25.209,16.258-46.605,38.855-54.318c-5.81-1.982-12.03-3.08-18.512-3.08
		c-31.701,0-57.398,25.698-57.398,57.398c0,68.653,103.759,106.169,103.759,106.169s7.531-2.726,18.528-8.042
		C389.43,481.556,334.038,448.021,334.038,397.856z"/>
	<path style="fill:#943EC7;" d="M44.56,353.388c0-25.209,16.258-46.605,38.855-54.318c-5.81-1.982-12.03-3.08-18.512-3.08
		c-31.701,0-57.398,25.698-57.398,57.398c0,68.653,103.759,106.169,103.759,106.169s7.531-2.726,18.526-8.043
		C99.95,437.086,44.56,403.551,44.56,353.388z"/>
</g>
<g>
	<path style="fill:#FFFFFF;" d="M446.995,423.289l10.994,10.205c6.742-7.264,12.21-14.907,16.251-22.718l-13.322-6.893
		C457.499,410.489,452.815,417.018,446.995,423.289z"/>
	<path style="fill:#FFFFFF;" d="M399.21,457.676l6.835,13.352c16.05-8.216,29.942-17.386,41.288-27.254l-9.844-11.318
		C427.058,441.527,414.18,450.013,399.21,457.676z"/>
	<path style="fill:#FFFFFF;" d="M157.518,378.82l10.994,10.205c6.743-7.265,12.21-14.907,16.252-22.716l-13.322-6.895
		C168.022,366.02,163.338,372.55,157.518,378.82z"/>
	<path style="fill:#FFFFFF;" d="M109.732,413.206l6.835,13.352c16.051-8.216,29.943-17.386,41.288-27.254l-9.844-11.318
		C137.582,397.057,124.703,405.542,109.732,413.206z"/>
</g>
<path d="M153.047,0v288.652c-15.811,1.131-30.723,8.08-41.785,19.347c-12.124-12.349-28.872-19.51-46.36-19.51
	c-35.786,0-64.898,29.113-64.898,64.898c0,73.076,104.27,111.617,108.708,113.222l2.55,0.923l2.551-0.923
	c4.414-1.596,108.099-39.926,108.695-112.667l0.012-217.673l220.003,28.443V333.12c-15.812,1.131-30.723,8.08-41.785,19.347
	c-12.124-12.349-28.872-19.51-46.359-19.51c-35.786,0-64.898,29.113-64.898,64.898c0,73.075,104.27,111.616,108.708,113.221
	l2.55,0.923l2.55-0.923c4.437-1.604,108.659-40.126,108.707-113.176l0.001-351.493L153.047,0z M496.998,397.896
	c-0.038,56.813-80.759,91.88-96.258,98.085c-15.516-6.212-96.259-41.293-96.259-98.125c0-27.515,22.385-49.898,49.898-49.898
	c15.857,0,30.925,7.662,40.306,20.495l6.055,8.284l6.055-8.284c9.38-12.833,24.448-20.495,40.306-20.495
	c0.838,0,1.694,0.021,2.546,0.064l0.045,0.002c6.095,0.312,11.999,1.712,17.547,4.162l6.061-13.721
	c-5.058-2.234-10.343-3.782-15.775-4.658V151.526l-250.002-32.322l-0.013,234.676c-0.463,56.544-80.788,91.443-96.246,97.633
	c-15.516-6.212-96.259-41.293-96.259-98.126c0-27.515,22.385-49.898,49.898-49.898c15.858,0,30.925,7.662,40.306,20.495l6.055,8.284
	l6.055-8.284c9.381-12.833,24.448-20.495,40.306-20.495c0.838,0,1.695,0.021,2.547,0.064l0.042,0.002
	c7.029,0.358,13.761,2.151,20.007,5.33l6.803-13.369c-6.015-3.061-12.374-5.128-18.975-6.189V17.064L497,59.593L496.998,397.896z"/>
<path d="M22.319,345.027c0,18.506,6.793,36.433,20.191,53.283l11.741-9.336c-11.235-14.131-16.932-28.917-16.932-43.947H22.319z"/>
<path d="M311.797,389.496c0,18.508,6.794,36.437,20.195,53.288l11.74-9.336c-11.237-14.132-16.935-28.92-16.935-43.952H311.797z"/>
<rect x="222.862" y="97.938" transform="matrix(-0.9917 -0.1282 0.1282 -0.9917 505.9271 243.4402)" width="75.872" height="14.999"/>
<g>
	
		<rect x="384.836" y="60.91" transform="matrix(-0.9917 -0.1282 0.1282 -0.9917 795.3868 188.0173)" style="fill:#FFFFFF;" width="37.818" height="14.999"/>
	<polygon style="fill:#FFFFFF;" points="472.005,174.435 487.005,174.435 487.005,71.614 443.372,65.973 441.449,80.85 
		472.005,84.8 	"/>
	<rect x="178.549" y="151.518" style="fill:#FFFFFF;" width="15" height="119.509"/>
	<rect x="178.549" y="108.419" style="fill:#FFFFFF;" width="15" height="31.981"/>
</g>
<rect x="468.716" y="281.317" width="15" height="36.31"/>
<g>
</g>
<g>
</g>
<g>
</g>
<g>
</g>
<g>
</g>
<g>
</g>
<g>
</g>
<g>
</g>
<g>
</g>
<g>
</g>
<g>
</g>
<g>
</g>
<g>
</g>
<g>
</g>
<g>
</g>
</svg>
