<svg width="62" height="62" xmlns="http://www.w3.org/2000/svg">

 <g>
  <title>Layer 1</title>
  <path id="svg_2" fill="#fff" d="m178.82422,433.58594c-0.07031,0 -0.14453,0 -0.21875,0c-27.11719,-0.14844 -49.17969,-22.53906 -49.17969,-49.91406l0,-254.74219c0,-18.10938 9.4375,-34.19531 25.25,-43.03125c15.8125,-8.83203 34.45703,-8.4375 49.88281,1.05859l207.57422,127.95313c14.71094,9.05468 23.47657,24.78515 23.44141,42.07031c-0.03516,17.28516 -8.86328,32.98047 -23.62109,41.98047l-150.0586,91.875c-7.0625,4.32422 -16.29687,2.10547 -20.625,-4.95703c-4.32422,-7.06641 -2.10547,-16.30079 4.96094,-20.62891l150.07812,-91.89063c5.88282,-3.58593 9.25391,-9.57421 9.26563,-16.4414c0.01562,-6.86328 -3.33203,-12.86719 -9.17578,-16.46875l-207.57422,-127.95313c-6.03125,-3.71093 -13.32813,-3.86328 -19.51563,-0.40625c-6.1875,3.45703 -9.88281,9.75391 -9.88281,16.83985l0,254.74218c0,11.84766 10.00391,19.86329 19.34375,19.91407c2.96094,-0.00391 6.44141,-1.1211 9.99219,-3.28907c7.07422,-4.3125 16.30469,-2.07812 20.61719,4.99219c4.3164,7.07031 2.08203,16.30469 -4.99219,20.61719c-8.23438,5.02734 -17.07031,7.67969 -25.5625,7.67969zm0,0"/>
  <linearGradient y2="0.5" y1="0.5" x2="1" x1="0" id="svg_6">
   <stop stop-color="#00f1ff" offset="0"/>
   <stop stop-color="#00d8ff" offset="0.231"/>
   <stop stop-color="#00c0ff" offset="0.5138"/>
   <stop stop-color="#00b2ff" offset="0.7773"/>
   <stop stop-color="#00adff" offset="1"/>
  </linearGradient>
  <linearGradient y2="0.5" y1="0.5" x2="1" x1="0" id="svg_14">
   <stop stop-color="#00f1ff" offset="0"/>
   <stop stop-color="#00d8ff" offset="0.231"/>
   <stop stop-color="#00c0ff" offset="0.5138"/>
   <stop stop-color="#00b2ff" offset="0.7773"/>
   <stop stop-color="#00adff" offset="1"/>
  </linearGradient>
  <g stroke="null" id="svg_18">
   <path stroke="null" id="svg_16" fill="url(#svg_14)" d="m61.60636,30.98602c0,16.8264 -13.6401,30.46649 -30.46649,30.46649s-30.46649,-13.6401 -30.46649,-30.46649s13.6401,-30.46649 30.46649,-30.46649s30.46649,13.6401 30.46649,30.46649zm0,0"/>
   <path stroke="null" id="svg_17" fill="#fff" d="m21.9552,52.12048c-0.00837,0 -0.0172,0 -0.02603,0c-3.22721,-0.01767 -5.85286,-2.68237 -5.85286,-5.94026l0,-30.3168c0,-2.15519 1.12315,-4.06958 3.005,-5.12114c1.88184,-1.0511 4.10072,-1.00414 5.93654,0.12598l24.70335,15.22767c1.75075,1.0776 2.79394,2.94967 2.78976,5.00678c-0.00418,2.0571 -1.05482,3.925 -2.81114,4.99608l-17.85844,10.93402c-0.84051,0.51462 -1.93949,0.25057 -2.45458,-0.58993c-0.51462,-0.84097 -0.25057,-1.93995 0.5904,-2.45504l17.86076,-10.93588c0.70011,-0.42676 1.10131,-1.13942 1.1027,-1.95669c0.00186,-0.8168 -0.39654,-1.53132 -1.09201,-1.95994l-24.70335,-15.22767c-0.71778,-0.44164 -1.58618,-0.45977 -2.32255,-0.04835c-0.73637,0.41142 -1.17615,1.16081 -1.17615,2.00411l0,30.3168c0,1.40999 1.19056,2.36393 2.30209,2.36997c0.35238,-0.00047 0.76659,-0.13342 1.18917,-0.39143c0.8419,-0.51323 1.94042,-0.24732 2.45365,0.59412c0.51369,0.84144 0.24778,1.94042 -0.59412,2.45365c-0.97997,0.5983 -2.03153,0.91396 -3.04219,0.91396zm0,0"/>
  </g>
 </g>
</svg>